# xmcd CD database file
#
# Track frame offsets:
#	150
#	21735
#	38710
#	64100
#	83305
#	110875
#	134832
#	153835
#	176802
#	204212
#	214025
#
# Disc length: 3157 seconds
#
# Revision: 0
# Processed by: cddbd v1.5.1PL0 Copyright (c) Steve Scherf et al.
# Submitted via: CDex 1.51
#
DISCID=990c530b
DTITLE=伊藤サチコ - さようなら、木
DYEAR=2002
DGENRE=JPop
TTITLE0=宿題
TTITLE1=虹と夕日と
TTITLE2=花束
TTITLE3=消灯
TTITLE4=カレンダー
TTITLE5=心の扉
TTITLE6=カモメ
TTITLE7=万華鏡
TTITLE8=さようなら、木
TTITLE9=僕の日々は映画のように、
TTITLE10=嫌いになって下さい。
EXTD=YEAR: 20020320
EXTT0=
EXTT1=
EXTT2=
EXTT3=
EXTT4=
EXTT5=
EXTT6=
EXTT7=
EXTT8=
EXTT9=
EXTT10=
PLAYORDER=
